<mxfile host="65bd71144e" modified="2023-11-15T20:14:07.675Z" agent="Mozilla/5.0 (Windows NT 10.0; Win64; x64) AppleWebKit/537.36 (KHTML, like Gecko) Code/1.84.2 Chrome/114.0.5735.289 Electron/25.9.2 Safari/537.36" etag="tBr7U07j1nWwP60P323j" version="22.1.1" type="embed">
    <diagram id="LNpOD_77L1T993lVNyJ5" name="Page-1">
        <mxGraphModel dx="1039" dy="407" grid="1" gridSize="10" guides="1" tooltips="1" connect="1" arrows="1" fold="1" page="1" pageScale="1" pageWidth="850" pageHeight="1100" background="#FFFFFF" math="0" shadow="0">
            <root>
                <mxCell id="0"/>
                <mxCell id="1" parent="0"/>
                <mxCell id="9" value="can &lt;br style=&quot;font-size: 20px;&quot;&gt;access" style="edgeStyle=orthogonalEdgeStyle;html=1;exitX=1;exitY=0.75;exitDx=0;exitDy=0;entryX=0.25;entryY=1;entryDx=0;entryDy=0;fontSize=20;labelBackgroundColor=none;rounded=0;" parent="1" source="2" target="5" edge="1">
                    <mxGeometry x="-0.3488" y="-22" relative="1" as="geometry">
                        <mxPoint as="offset"/>
                    </mxGeometry>
                </mxCell>
                <mxCell id="2" value="Classical Processing System (CPS)" style="rounded=0;whiteSpace=wrap;html=1;fontSize=22;" parent="1" vertex="1">
                    <mxGeometry x="140" y="210" width="200" height="100" as="geometry"/>
                </mxCell>
                <mxCell id="10" value="can&lt;br style=&quot;font-size: 20px;&quot;&gt;access" style="edgeStyle=orthogonalEdgeStyle;html=1;exitX=0;exitY=0.75;exitDx=0;exitDy=0;entryX=0.75;entryY=1;entryDx=0;entryDy=0;fontSize=20;labelBackgroundColor=none;rounded=0;" parent="1" source="3" target="5" edge="1">
                    <mxGeometry x="-0.3116" y="20" relative="1" as="geometry">
                        <mxPoint as="offset"/>
                    </mxGeometry>
                </mxCell>
                <mxCell id="12" value="entanglement generation&lt;br style=&quot;font-size: 20px;&quot;&gt;with other nodes" style="edgeStyle=none;html=1;exitX=0.5;exitY=0;exitDx=0;exitDy=0;fontSize=20;" parent="1" source="3" edge="1">
                    <mxGeometry x="0.0222" y="10" relative="1" as="geometry">
                        <mxPoint x="620" y="120" as="targetPoint"/>
                        <mxPoint as="offset"/>
                    </mxGeometry>
                </mxCell>
                <mxCell id="3" value="Quantum Processing System (QPS)" style="rounded=0;whiteSpace=wrap;html=1;fontSize=22;" parent="1" vertex="1">
                    <mxGeometry x="520" y="210" width="200" height="100" as="geometry"/>
                </mxCell>
                <mxCell id="7" value="controls" style="edgeStyle=orthogonalEdgeStyle;html=1;exitX=0;exitY=0.5;exitDx=0;exitDy=0;fontSize=20;rounded=0;" parent="1" source="4" target="2" edge="1">
                    <mxGeometry x="-0.2364" y="-20" relative="1" as="geometry">
                        <mxPoint as="offset"/>
                    </mxGeometry>
                </mxCell>
                <mxCell id="8" value="controls" style="edgeStyle=orthogonalEdgeStyle;html=1;exitX=1;exitY=0.5;exitDx=0;exitDy=0;entryX=0.5;entryY=1;entryDx=0;entryDy=0;fontSize=20;rounded=0;" parent="1" source="4" target="3" edge="1">
                    <mxGeometry x="-0.1228" y="20" relative="1" as="geometry">
                        <mxPoint as="offset"/>
                    </mxGeometry>
                </mxCell>
                <mxCell id="4" value="Scheduler" style="rounded=0;whiteSpace=wrap;html=1;fontSize=22;" parent="1" vertex="1">
                    <mxGeometry x="365" y="360" width="120" height="60" as="geometry"/>
                </mxCell>
                <mxCell id="5" value="Shared&lt;br style=&quot;font-size: 20px;&quot;&gt;Memory" style="rounded=0;whiteSpace=wrap;html=1;fontSize=20;" parent="1" vertex="1">
                    <mxGeometry x="380" y="175" width="90" height="75" as="geometry"/>
                </mxCell>
                <mxCell id="13" value="classical messaging&lt;br style=&quot;font-size: 20px;&quot;&gt;with other nodes" style="edgeStyle=none;html=1;exitX=0.5;exitY=0;exitDx=0;exitDy=0;fontSize=20;" parent="1" edge="1" source="2">
                    <mxGeometry relative="1" as="geometry">
                        <mxPoint x="240" y="120" as="targetPoint"/>
                        <mxPoint x="209.5" y="210" as="sourcePoint"/>
                    </mxGeometry>
                </mxCell>
            </root>
        </mxGraphModel>
    </diagram>
</mxfile>